<mxfile host="app.diagrams.net" modified="2021-05-15T09:11:05.662Z" agent="5.0 (Windows NT 10.0; Win64; x64) AppleWebKit/537.36 (KHTML, like Gecko) Chrome/90.0.4430.214 Safari/537.36" etag="ojniQbwZqvXuFWAw4A22" version="14.2.4" type="github">
  <diagram id="0NFnqX1TIoNJoYRVMPxb" name="Page-1">
    <mxGraphModel dx="2052" dy="1133" grid="1" gridSize="10" guides="1" tooltips="1" connect="1" arrows="1" fold="1" page="1" pageScale="1" pageWidth="827" pageHeight="1169" math="0" shadow="0">
      <root>
        <mxCell id="0" />
        <mxCell id="1" parent="0" />
        <mxCell id="zzZ3XzyDj_rR2SKxWP7r-34" value="" style="group;container=1;" vertex="1" connectable="0" parent="1">
          <mxGeometry x="70" y="90" width="644" height="720" as="geometry" />
        </mxCell>
        <mxCell id="zzZ3XzyDj_rR2SKxWP7r-1" value="" style="rounded=0;whiteSpace=wrap;html=1;" vertex="1" parent="zzZ3XzyDj_rR2SKxWP7r-34">
          <mxGeometry width="644" height="720" as="geometry" />
        </mxCell>
        <mxCell id="zzZ3XzyDj_rR2SKxWP7r-2" value="Server" style="ellipse;whiteSpace=wrap;html=1;" vertex="1" parent="zzZ3XzyDj_rR2SKxWP7r-34">
          <mxGeometry x="40" y="40" width="180" height="50" as="geometry" />
        </mxCell>
        <mxCell id="zzZ3XzyDj_rR2SKxWP7r-3" value="Anwender" style="ellipse;whiteSpace=wrap;html=1;" vertex="1" parent="zzZ3XzyDj_rR2SKxWP7r-34">
          <mxGeometry x="420" y="40" width="180" height="50" as="geometry" />
        </mxCell>
        <mxCell id="zzZ3XzyDj_rR2SKxWP7r-5" value="" style="rounded=0;whiteSpace=wrap;html=1;autosize=0;" vertex="1" parent="zzZ3XzyDj_rR2SKxWP7r-34">
          <mxGeometry x="12" y="100" width="620" height="610" as="geometry" />
        </mxCell>
        <mxCell id="zzZ3XzyDj_rR2SKxWP7r-4" value="Touchscreen" style="ellipse;whiteSpace=wrap;html=1;" vertex="1" parent="zzZ3XzyDj_rR2SKxWP7r-34">
          <mxGeometry x="42" y="160" width="180" height="50" as="geometry" />
        </mxCell>
        <mxCell id="zzZ3XzyDj_rR2SKxWP7r-6" value="Kamera" style="ellipse;whiteSpace=wrap;html=1;" vertex="1" parent="zzZ3XzyDj_rR2SKxWP7r-34">
          <mxGeometry x="232" y="160" width="180" height="50" as="geometry" />
        </mxCell>
        <mxCell id="zzZ3XzyDj_rR2SKxWP7r-7" value="Sensoren" style="ellipse;whiteSpace=wrap;html=1;" vertex="1" parent="zzZ3XzyDj_rR2SKxWP7r-34">
          <mxGeometry x="422" y="160" width="180" height="50" as="geometry" />
        </mxCell>
        <mxCell id="zzZ3XzyDj_rR2SKxWP7r-8" value="Benutzeroberfläche" style="ellipse;whiteSpace=wrap;html=1;" vertex="1" parent="zzZ3XzyDj_rR2SKxWP7r-34">
          <mxGeometry x="42" y="220" width="180" height="50" as="geometry" />
        </mxCell>
        <mxCell id="zzZ3XzyDj_rR2SKxWP7r-9" value="Verlassen der Anwendung" style="ellipse;whiteSpace=wrap;html=1;" vertex="1" parent="zzZ3XzyDj_rR2SKxWP7r-34">
          <mxGeometry x="232" y="220" width="180" height="50" as="geometry" />
        </mxCell>
        <mxCell id="zzZ3XzyDj_rR2SKxWP7r-10" value="Starten der Anwendung" style="ellipse;whiteSpace=wrap;html=1;" vertex="1" parent="zzZ3XzyDj_rR2SKxWP7r-34">
          <mxGeometry x="422" y="220" width="180" height="50" as="geometry" />
        </mxCell>
        <mxCell id="zzZ3XzyDj_rR2SKxWP7r-11" value="&lt;font style=&quot;font-size: 24px&quot;&gt;&lt;u&gt;Kontext&lt;/u&gt;&lt;/font&gt;" style="text;html=1;strokeColor=none;fillColor=none;align=center;verticalAlign=middle;whiteSpace=wrap;rounded=0;" vertex="1" parent="zzZ3XzyDj_rR2SKxWP7r-34">
          <mxGeometry x="272" width="100" height="40" as="geometry" />
        </mxCell>
        <mxCell id="zzZ3XzyDj_rR2SKxWP7r-12" value="&lt;font style=&quot;font-size: 24px&quot;&gt;&lt;u&gt;Systemgrenze&lt;/u&gt;&lt;/font&gt;" style="text;html=1;strokeColor=none;fillColor=none;align=center;verticalAlign=middle;whiteSpace=wrap;rounded=0;" vertex="1" parent="zzZ3XzyDj_rR2SKxWP7r-34">
          <mxGeometry x="272" y="110" width="100" height="40" as="geometry" />
        </mxCell>
        <mxCell id="zzZ3XzyDj_rR2SKxWP7r-13" value="" style="rounded=0;whiteSpace=wrap;html=1;" vertex="1" parent="zzZ3XzyDj_rR2SKxWP7r-34">
          <mxGeometry x="20" y="290" width="600" height="410" as="geometry" />
        </mxCell>
        <mxCell id="zzZ3XzyDj_rR2SKxWP7r-14" value="&lt;font style=&quot;font-size: 24px&quot;&gt;&lt;u&gt;System&lt;/u&gt;&lt;/font&gt;" style="text;html=1;strokeColor=none;fillColor=none;align=center;verticalAlign=middle;whiteSpace=wrap;rounded=0;" vertex="1" parent="zzZ3XzyDj_rR2SKxWP7r-34">
          <mxGeometry x="272" y="300" width="100" height="40" as="geometry" />
        </mxCell>
        <mxCell id="zzZ3XzyDj_rR2SKxWP7r-15" value="ToDoListe erstellen" style="ellipse;whiteSpace=wrap;html=1;" vertex="1" parent="zzZ3XzyDj_rR2SKxWP7r-34">
          <mxGeometry x="42" y="340" width="180" height="50" as="geometry" />
        </mxCell>
        <mxCell id="zzZ3XzyDj_rR2SKxWP7r-16" value="ToDoListe löschen" style="ellipse;whiteSpace=wrap;html=1;" vertex="1" parent="zzZ3XzyDj_rR2SKxWP7r-34">
          <mxGeometry x="232" y="340" width="180" height="50" as="geometry" />
        </mxCell>
        <mxCell id="zzZ3XzyDj_rR2SKxWP7r-17" value="ToDoListe suchen" style="ellipse;whiteSpace=wrap;html=1;" vertex="1" parent="zzZ3XzyDj_rR2SKxWP7r-34">
          <mxGeometry x="422" y="340" width="180" height="50" as="geometry" />
        </mxCell>
        <mxCell id="zzZ3XzyDj_rR2SKxWP7r-18" value="ToDoListe bearbeiten" style="ellipse;whiteSpace=wrap;html=1;" vertex="1" parent="zzZ3XzyDj_rR2SKxWP7r-34">
          <mxGeometry x="42" y="400" width="180" height="50" as="geometry" />
        </mxCell>
        <mxCell id="zzZ3XzyDj_rR2SKxWP7r-19" value="ToDoListe sortieren" style="ellipse;whiteSpace=wrap;html=1;" vertex="1" parent="zzZ3XzyDj_rR2SKxWP7r-34">
          <mxGeometry x="232" y="400" width="180" height="50" as="geometry" />
        </mxCell>
        <mxCell id="zzZ3XzyDj_rR2SKxWP7r-20" value="Aufgabe bearbeiten" style="ellipse;whiteSpace=wrap;html=1;" vertex="1" parent="zzZ3XzyDj_rR2SKxWP7r-34">
          <mxGeometry x="232" y="455" width="180" height="50" as="geometry" />
        </mxCell>
        <mxCell id="zzZ3XzyDj_rR2SKxWP7r-21" value="Aufgabe erstellen" style="ellipse;whiteSpace=wrap;html=1;" vertex="1" parent="zzZ3XzyDj_rR2SKxWP7r-34">
          <mxGeometry x="422" y="400" width="180" height="50" as="geometry" />
        </mxCell>
        <mxCell id="zzZ3XzyDj_rR2SKxWP7r-22" value="Aufgabe löschen" style="ellipse;whiteSpace=wrap;html=1;" vertex="1" parent="zzZ3XzyDj_rR2SKxWP7r-34">
          <mxGeometry x="42" y="455" width="180" height="50" as="geometry" />
        </mxCell>
        <mxCell id="zzZ3XzyDj_rR2SKxWP7r-23" value="Aufgabe suchen" style="ellipse;whiteSpace=wrap;html=1;" vertex="1" parent="zzZ3XzyDj_rR2SKxWP7r-34">
          <mxGeometry x="422" y="455" width="180" height="50" as="geometry" />
        </mxCell>
        <mxCell id="zzZ3XzyDj_rR2SKxWP7r-24" value="Aufgabe sortieren" style="ellipse;whiteSpace=wrap;html=1;" vertex="1" parent="zzZ3XzyDj_rR2SKxWP7r-34">
          <mxGeometry x="42" y="513" width="180" height="50" as="geometry" />
        </mxCell>
        <mxCell id="zzZ3XzyDj_rR2SKxWP7r-25" value="Gruppen erstellen" style="ellipse;whiteSpace=wrap;html=1;" vertex="1" parent="zzZ3XzyDj_rR2SKxWP7r-34">
          <mxGeometry x="232" y="513" width="180" height="50" as="geometry" />
        </mxCell>
        <mxCell id="zzZ3XzyDj_rR2SKxWP7r-26" value="Gruppen löschen" style="ellipse;whiteSpace=wrap;html=1;" vertex="1" parent="zzZ3XzyDj_rR2SKxWP7r-34">
          <mxGeometry x="422" y="513" width="180" height="50" as="geometry" />
        </mxCell>
        <mxCell id="zzZ3XzyDj_rR2SKxWP7r-27" value="Gruppen bearbeiten" style="ellipse;whiteSpace=wrap;html=1;" vertex="1" parent="zzZ3XzyDj_rR2SKxWP7r-34">
          <mxGeometry x="42" y="570" width="180" height="50" as="geometry" />
        </mxCell>
        <mxCell id="zzZ3XzyDj_rR2SKxWP7r-28" value="Gruppen suchen" style="ellipse;whiteSpace=wrap;html=1;" vertex="1" parent="zzZ3XzyDj_rR2SKxWP7r-34">
          <mxGeometry x="232" y="570" width="180" height="50" as="geometry" />
        </mxCell>
        <mxCell id="zzZ3XzyDj_rR2SKxWP7r-29" value="Gruppen sortieren" style="ellipse;whiteSpace=wrap;html=1;" vertex="1" parent="zzZ3XzyDj_rR2SKxWP7r-34">
          <mxGeometry x="422" y="570" width="180" height="50" as="geometry" />
        </mxCell>
        <mxCell id="zzZ3XzyDj_rR2SKxWP7r-30" value="Benutzer erstellen" style="ellipse;whiteSpace=wrap;html=1;" vertex="1" parent="zzZ3XzyDj_rR2SKxWP7r-34">
          <mxGeometry x="42" y="630" width="180" height="50" as="geometry" />
        </mxCell>
        <mxCell id="zzZ3XzyDj_rR2SKxWP7r-31" value="Benutzer löschen" style="ellipse;whiteSpace=wrap;html=1;" vertex="1" parent="zzZ3XzyDj_rR2SKxWP7r-34">
          <mxGeometry x="232" y="630" width="180" height="50" as="geometry" />
        </mxCell>
        <mxCell id="zzZ3XzyDj_rR2SKxWP7r-32" value="Benutzer bearbeiten" style="ellipse;whiteSpace=wrap;html=1;" vertex="1" parent="zzZ3XzyDj_rR2SKxWP7r-34">
          <mxGeometry x="422" y="630" width="180" height="50" as="geometry" />
        </mxCell>
      </root>
    </mxGraphModel>
  </diagram>
</mxfile>
